0
SECTION
2
HEADER
9
$INSUNITS
70
4
9
$ACADVER
1
AC1014
9
$HANDSEED
5
FFFF
0
ENDSEC
0
SECTION
2
TABLES
0
TABLE
2
VPORT
5
8
100
AcDbSymbolTable
0
ENDTAB
0
TABLE
2
LTYPE
5
5
100
AcDbSymbolTable
0
LTYPE
5
14
100
AcDbSymbolTableRecord
100
AcDbLinetypeTableRecord
2
BYBLOCK
70
0
0
LTYPE
5
15
100
AcDbSymbolTableRecord
100
AcDbLinetypeTableRecord
2
BYLAYER
70
0
0
LTYPE
5
16
100
AcDbSymbolTableRecord
100
AcDbLinetypeTableRecord
2
DASHED
70
0
3
Dashed __ __ __ __ __ __ __ __ __ __ __ __ __ _
72
65
73
2
40
0.75
49
0.5
74
0
49
-0.25
74
0
0
ENDTAB
0
TABLE
2
LAYER
5
2
100
AcDbSymbolTable
70
3
0
LAYER
5
50
100
AcDbSymbolTableRecord
100
AcDbLayerTableRecord
2
1
70
0
62
7
6
DASHED
0
LAYER
5
51
100
AcDbSymbolTableRecord
100
AcDbLayerTableRecord
2
0
70
0
62
7
6
CONTINUOUS
0
ENDTAB
0
TABLE
2
STYLE
5
3
100
AcDbSymbolTable
70
1
0
STYLE
5
11
100
AcDbSymbolTableRecord
100
AcDbTextStyleTableRecord
2
STANDARD
70
0
0
ENDTAB
0
TABLE
2
VIEW
5
6
100
AcDbSymbolTable
70
0
0
ENDTAB
0
TABLE
2
UCS
5
7
100
AcDbSymbolTable
70
0
0
ENDTAB
0
TABLE
2
APPID
5
9
100
AcDbSymbolTable
70
2
0
APPID
5
12
100
AcDbSymbolTableRecord
100
AcDbRegAppTableRecord
2
ACAD
70
0
0
ENDTAB
0
TABLE
2
DIMSTYLE
5
A
100
AcDbSymbolTable
70
1
0
ENDTAB
0
TABLE
2
BLOCK_RECORD
5
1
100
AcDbSymbolTable
70
1
0
BLOCK_RECORD
5
1F
100
AcDbSymbolTableRecord
100
AcDbBlockTableRecord
2
*MODEL_SPACE
0
BLOCK_RECORD
5
1B
100
AcDbSymbolTableRecord
100
AcDbBlockTableRecord
2
*PAPER_SPACE
0
ENDTAB
0
ENDSEC
0
SECTION
2
BLOCKS
0
BLOCK
5
20
100
AcDbEntity
100
AcDbBlockBegin
2
*MODEL_SPACE
0
ENDBLK
5
21
100
AcDbEntity
100
AcDbBlockEnd
0
BLOCK
5
1C
100
AcDbEntity
100
AcDbBlockBegin
2
*PAPER_SPACE
0
ENDBLK
5
1D
100
AcDbEntity
100
AcDbBlockEnd
0
ENDSEC
0
SECTION
2
ENTITIES
0
CIRCLE
5
100
100
AcDbEntity
8
0
100
AcDbCircle
10
-36.843046308589265
20
-8.6895474979722813
30
0
40
1.4999999999999991
210
-9.8607613152626016e-32
220
-0
230
1
0
CIRCLE
5
101
100
AcDbEntity
8
0
100
AcDbCircle
10
29.069195421155563
20
-17.120627792010875
30
0
40
1.4999999999999991
210
-9.8607613152626016e-32
220
-0
230
1
0
CIRCLE
5
102
100
AcDbEntity
8
0
100
AcDbCircle
10
-6.1252171075911401e-14
20
15.920310216782955
30
0
40
1.4999999999999991
210
-9.8607613152626016e-32
220
-0
230
1
0
CIRCLE
5
103
100
AcDbEntity
8
0
100
AcDbCircle
10
-25.821534667391177
20
23.559710504227738
30
0
40
1.4999999999999991
210
-9.8607613152626016e-32
220
-0
230
1
0
CIRCLE
5
104
100
AcDbEntity
8
0
100
AcDbCircle
10
25.821768651420555
20
23.559710487191499
30
1.1102230246251565e-15
40
1.4999999999999991
210
-9.8607613152626016e-32
220
-0
230
1
0
CIRCLE
5
105
100
AcDbEntity
8
0
100
AcDbCircle
10
2.3124778795600464e-14
20
-27.920310216782951
30
0
40
1.4999999999999991
210
-9.8607613152626016e-32
220
-0
230
1
0
CIRCLE
5
106
100
AcDbEntity
8
0
100
AcDbCircle
10
-21.920310216782983
20
-5.9999999999999947
30
0
40
1.4999999999999991
210
-9.8607613152626016e-32
220
-0
230
1
0
CIRCLE
5
107
100
AcDbEntity
8
0
100
AcDbCircle
10
21.92031021678293
20
-5.9999999999999982
30
0
40
1.4999999999999991
210
-9.8607613152626016e-32
220
-0
230
1
0
CIRCLE
5
108
100
AcDbEntity
8
0
100
AcDbCircle
10
13.303480810840755
20
30.328737249326604
30
0
40
1.4999999999999991
210
-9.8607613152626016e-32
220
-0
230
1
0
CIRCLE
5
109
100
AcDbEntity
8
0
100
AcDbCircle
10
-13.303480810840806
20
30.328737249326583
30
0
40
1.4999999999999991
210
-9.8607613152626016e-32
220
-0
230
1
0
CIRCLE
5
110
100
AcDbEntity
8
0
100
AcDbCircle
10
36.84325687810226
20
-8.6894775340596091
30
0
40
1.4999999999999991
210
-9.8607613152626016e-32
220
-0
230
1
0
CIRCLE
5
111
100
AcDbEntity
8
0
100
AcDbCircle
10
-29.06919542115563
20
-17.120627792010904
30
1.1102230246251565e-15
40
1.4999999999999991
210
-9.8607613152626016e-32
220
-0
230
1
0
CIRCLE
5
112
100
AcDbEntity
8
0
100
AcDbCircle
10
-2.1284142189405794e-14
20
-6
30
0
40
11.050000000000002
210
-9.8607613152626016e-32
220
6.1798448011890851e-62
230
1
0
CIRCLE
5
113
100
AcDbEntity
8
0
100
AcDbCircle
10
-25.329146772620682
20
8.6977487921290759
30
1.1102230246251565e-15
40
1.749999999999996
210
5.7606158466276391e-32
220
3.1977841744732715e-48
230
1
0
LWPOLYLINE
5
114
100
AcDbEntity
8
0
100
AcDbPolyline
90
25
70
1
43
0.0
10
-39.29156882127279
20
-15.853994336694841
10
-40.261438313135386
20
-18.691860183937152
42
0.41671345239908042
10
-38.05311450531471
20
-23.145199361892729
10
-1.3322676295501878e-14
20
-35.788878424863661
10
38.053325214470078
20
-23.145129350831279
42
0.41671345649025132
10
40.261649006508421
20
-18.691790126696244
10
39.291779490682586
20
-15.853924338641425
42
-0.340442349844714
10
40.075623817795474
20
-13.542555420018028
42
0.77014530582627827
10
36.429260555388197
20
-2.8731928054051412
42
-0.34044234984471905
10
34.394734265522025
20
-1.5250307294777481
10
28.270275173398048
20
16.395310764171121
42
-0.34044189715315931
10
29.054116799410327
20
18.706677883737552
42
0.58928253449662449
10
28.2207425579236
20
28.874305880626242
42
-0.29481813804199497
10
27.04358381944175
20
30.697197061784124
10
27.043583819441729
20
33.861216226484707
42
0.41421356237309914
10
23.543583819441732
20
37.3612162264847
10
-23.543349914910717
20
37.361216226484693
42
0.41421356237309842
10
-27.043349914910717
20
33.861216226484693
10
-27.043349914910742
20
30.697197042935311
42
-0.29481813501543724
10
-28.220508633088972
20
28.874305870942351
42
0.58928253544147269
10
-29.053882747713139
20
18.706677855703862
42
-0.34044189715316475
10
-28.270041089472556
20
16.395310747066844
10
-34.394523795905762
20
-1.5251006592497043
42
-0.34044234984471872
10
-36.429050066973986
20
-2.8732627635453021
42
0.77014530582628182
10
-40.075413180614049
20
-13.542625429000893
42
-0.34044234984471661
0
ENDSEC
0
SECTION
2
OBJECTS
0
DICTIONARY
5
C
100
AcDbDictionary
3
ACAD_GROUP
350
D
3
ACAD_MLINESTYLE
350
17
0
DICTIONARY
5
D
100
AcDbDictionary
0
DICTIONARY
5
1A
330
C
100
AcDbDictionary
0
DICTIONARY
5
17
100
AcDbDictionary
0
ENDSEC
0
EOF
