0
SECTION
2
HEADER
9
$INSUNITS
70
4
9
$ACADVER
1
AC1014
9
$HANDSEED
5
FFFF
0
ENDSEC
0
SECTION
2
TABLES
0
TABLE
2
VPORT
5
8
100
AcDbSymbolTable
0
ENDTAB
0
TABLE
2
LTYPE
5
5
100
AcDbSymbolTable
0
LTYPE
5
14
100
AcDbSymbolTableRecord
100
AcDbLinetypeTableRecord
2
BYBLOCK
70
0
0
LTYPE
5
15
100
AcDbSymbolTableRecord
100
AcDbLinetypeTableRecord
2
BYLAYER
70
0
0
LTYPE
5
16
100
AcDbSymbolTableRecord
100
AcDbLinetypeTableRecord
2
DASHED
70
0
3
Dashed __ __ __ __ __ __ __ __ __ __ __ __ __ _
72
65
73
2
40
0.75
49
0.5
74
0
49
-0.25
74
0
0
ENDTAB
0
TABLE
2
LAYER
5
2
100
AcDbSymbolTable
70
3
0
LAYER
5
50
100
AcDbSymbolTableRecord
100
AcDbLayerTableRecord
2
1
70
0
62
7
6
DASHED
0
LAYER
5
51
100
AcDbSymbolTableRecord
100
AcDbLayerTableRecord
2
0
70
0
62
7
6
CONTINUOUS
0
ENDTAB
0
TABLE
2
STYLE
5
3
100
AcDbSymbolTable
70
1
0
STYLE
5
11
100
AcDbSymbolTableRecord
100
AcDbTextStyleTableRecord
2
STANDARD
70
0
0
ENDTAB
0
TABLE
2
VIEW
5
6
100
AcDbSymbolTable
70
0
0
ENDTAB
0
TABLE
2
UCS
5
7
100
AcDbSymbolTable
70
0
0
ENDTAB
0
TABLE
2
APPID
5
9
100
AcDbSymbolTable
70
2
0
APPID
5
12
100
AcDbSymbolTableRecord
100
AcDbRegAppTableRecord
2
ACAD
70
0
0
ENDTAB
0
TABLE
2
DIMSTYLE
5
A
100
AcDbSymbolTable
70
1
0
ENDTAB
0
TABLE
2
BLOCK_RECORD
5
1
100
AcDbSymbolTable
70
1
0
BLOCK_RECORD
5
1F
100
AcDbSymbolTableRecord
100
AcDbBlockTableRecord
2
*MODEL_SPACE
0
BLOCK_RECORD
5
1B
100
AcDbSymbolTableRecord
100
AcDbBlockTableRecord
2
*PAPER_SPACE
0
ENDTAB
0
ENDSEC
0
SECTION
2
BLOCKS
0
BLOCK
5
20
100
AcDbEntity
100
AcDbBlockBegin
2
*MODEL_SPACE
0
ENDBLK
5
21
100
AcDbEntity
100
AcDbBlockEnd
0
BLOCK
5
1C
100
AcDbEntity
100
AcDbBlockBegin
2
*PAPER_SPACE
0
ENDBLK
5
1D
100
AcDbEntity
100
AcDbBlockEnd
0
ENDSEC
0
SECTION
2
ENTITIES
0
CIRCLE
5
100
100
AcDbEntity
8
0
100
AcDbCircle
10
4.0150290499714855e-14
20
-27.920310216782998
30
0
40
1.5000000000000002
210
0
220
0
230
1
0
CIRCLE
5
101
100
AcDbEntity
8
0
100
AcDbCircle
10
21.920310216782983
20
-6.0000000000000151
30
0
40
1.4999999999999991
210
0
220
0
230
1
0
CIRCLE
5
102
100
AcDbEntity
8
0
100
AcDbCircle
10
13.303480810840799
20
30.32873724932665
30
0
40
1.5000000000000013
210
0
220
0
230
1
0
CIRCLE
5
103
100
AcDbEntity
8
0
100
AcDbCircle
10
29.069195421155641
20
-17.120627792010904
30
0
40
1.5000000000000036
210
0
220
0
230
1
0
CIRCLE
5
104
100
AcDbEntity
8
0
100
AcDbCircle
10
-21.920310216782994
20
-6.0000000000000107
30
0
40
1.4999999999999991
210
0
220
0
230
1
0
CIRCLE
5
105
100
AcDbEntity
8
0
100
AcDbCircle
10
-13.303480810840799
20
30.328737249326629
30
0
40
1.5000000000000013
210
0
220
0
230
1
0
CIRCLE
5
106
100
AcDbEntity
8
0
100
AcDbCircle
10
-29.069195421155641
20
-17.120627792010929
30
0
40
1.5000000000000036
210
0
220
0
230
1
0
LWPOLYLINE
5
107
100
AcDbEntity
8
0
100
AcDbPolyline
90
23
70
1
43
0.0
10
-19.255086886543467
20
25.102210491424572
10
-19.775206960458625
20
23.536828403613526
42
-0.20058697384522639
10
-21.396585116841507
20
21.675869671827733
10
-32.49194980609807
20
16.203965458649993
42
0.41421855485842846
10
-33.946508940552377
20
11.918570866109011
10
-28.366899720505554
20
0.60529916491088542
42
-0.19724326051732721
10
-28.200080698576969
20
-1.8191366958443034
10
-32.013796035505642
20
-13.297104910953511
42
-0.41421356237309503
10
-36.059561133211396
20
-15.324858538538964
10
-41.598800008137147
20
-13.484369014930817
10
-44.121314345787532
20
-21.076267421544813
10
8.8817841970012523e-15
20
-35.736190680827015
10
44.121524994804311
20
-21.076197430465278
10
41.59901065715394
20
-13.484299023851275
10
36.059561133211368
20
-15.324858538538969
42
-0.41421356237309515
10
32.013796035505621
20
-13.297104910953514
10
19.255086886543445
20
25.102210491424589
42
-0.51161457492065654
10
22.291846249189049
20
29.311216226484742
10
26.993583819441792
20
29.311216226484742
10
26.993583819441824
20
37.311216226484746
10
-26.993349914910738
20
37.311216226484731
10
-26.993349914910777
20
29.311216226484724
10
-22.291846249189071
20
29.311216226484721
42
-0.51161457492065676
0
ENDSEC
0
SECTION
2
OBJECTS
0
DICTIONARY
5
C
100
AcDbDictionary
3
ACAD_GROUP
350
D
3
ACAD_MLINESTYLE
350
17
0
DICTIONARY
5
D
100
AcDbDictionary
0
DICTIONARY
5
1A
330
C
100
AcDbDictionary
0
DICTIONARY
5
17
100
AcDbDictionary
0
ENDSEC
0
EOF
